<svg xmlns="http://www.w3.org/2000/svg" width="192" height="192" viewBox="0 0 192 192" fill="none">
  <rect width="192" height="192" rx="32" fill="#1976D2"/>
  <path d="M50.6667 59H58.6667V133H50.6667V59Z" fill="white"/>
  <path d="M72.6667 59H93.3333C102.618 59 109.951 61.3333 115.333 66C120.764 70.6667 123.48 77.4889 123.48 86.4667C123.48 95.4444 120.764 102.267 115.333 106.933C109.951 111.6 102.618 113.933 93.3333 113.933H80.6667V133H72.6667V59ZM92.5778 106.933C99.0667 106.933 103.925 105.356 107.151 102.2C110.378 99.0444 112.049 93.8667 112.084 86.6667C112.084 79.4667 110.449 74.2889 107.18 71.1333C103.911 67.9778 99.0178 66.4 92.5333 66.4H80.6667V106.933H92.5778Z" fill="white"/>
  <path d="M129.333 59H137.333V113.933H169.333V133H129.333V59Z" fill="white"/>
  <circle cx="132" cy="132" r="28" fill="#F50057"/>
  <path d="M122 132L130 140L144 126" stroke="white" stroke-width="4" stroke-linecap="round" stroke-linejoin="round"/>
</svg>
