<svg xmlns="http://www.w3.org/2000/svg" width="512" height="512" viewBox="0 0 512 512" fill="none">
  <rect width="512" height="512" rx="64" fill="#1976D2"/>
  <path d="M135.111 157.333H156.444V354.666H135.111V157.333Z" fill="white"/>
  <path d="M193.778 157.333H248.889C273.647 157.333 293.203 163.556 307.556 176C322.039 188.444 329.28 206.638 329.28 230.578C329.28 254.518 322.039 272.711 307.556 285.156C293.203 297.6 273.647 303.822 248.889 303.822H215.111V354.666H193.778V157.333ZM246.875 285.156C264.178 285.156 277.134 281.244 285.735 273.422C294.336 265.6 298.798 250.845 298.889 231.156C298.889 211.467 294.464 197.111 285.813 188.889C277.161 180.667 264.107 176.711 246.756 176.711H215.111V285.156H246.875Z" fill="white"/>
  <path d="M344.889 157.333H366.222V303.822H451.555V354.666H344.889V157.333Z" fill="white"/>
  <circle cx="352" cy="352" r="80" fill="#F50057"/>
  <path d="M325.714 352L347.429 373.714L382.857 338.286" stroke="white" stroke-width="10" stroke-linecap="round" stroke-linejoin="round"/>
</svg>
